
<svg width="147" height="169" viewBox="0 0 147 169" fill="none" xmlns="http://www.w3.org/2000/svg">
<path d="M100.5 168V1L129.5 10.5H146.5V161H126.5L100.5 168Z" fill="#272221" stroke="#272221"/>
<path d="M48 11H100V16.5H53V54.5H48V11Z" fill="#272221" stroke="#272221"/>
<path d="M60 61H35.5C35 61 34 61.5 33.5 62C33 62.5 23.5 80 23.5 80C23.5 80 21 85 25.5 87C30 89 32 85 32 85L40 71H50V72L41 97L30 108.5H5.5C5 108.5 1 108.5 1 113.5C1 118.5 5 118.5 5.5 118.5L34 118.5C34.5 118.5 48.5 102.5 49 102.5C49.5 102.5 62.5 119.5 62.5 119.5V141C62.5 141.5 63 145.5 67.5 145.5C72 145.5 72 141.5 72 141C72 140.5 72.5 116.5 72 115.5C71.5 114.5 59 100 59 99C59 98 65 81 65.5 81C66 81 70 89 70.5 89.5C71 90 72 90.5 72.5 90.5H91C92 90.5 95.5 90 95.5 85.5C95.5 81 92.5 80 91 80L76.5 80C76.5 80 69 64 67 63C65 62 60 61 60 61Z" fill="#272221" stroke="#272221"/>
<path d="M62 44C60.3528 45.6472 59.5 48 59.5 50.5C59.5 53 60 55 62 57C64 59 66.5 59.5 68.5 59.5C70.5 59.5 72.7189 59.2811 75 57C77.2811 54.7189 77.5 52 77.5 50.5C77.5 49 77.285 46.285 75 44C72.715 41.715 70.5 41.5 68.5 41.5C66.5 41.5 63.6472 42.3528 62 44Z" fill="#272221" stroke="#272221"/>
<path d="M53 123.5H47.5V161H100V156.5H53V123.5Z" fill="#272221" stroke="#272221"/>
</svg>
